<svg width="22" height="22" viewBox="0 0 22 22" fill="none" xmlns="http://www.w3.org/2000/svg">
<path d="M13.61 0.569998C16.13 0.569998 18.1 1.17 19.52 2.37C20.94 3.55 21.65 5.26 21.65 7.5C21.65 8.56 21.49 9.7 21.17 10.92C20.57 13.16 19.64 15.06 18.38 16.62C17.12 18.18 15.62 19.36 13.88 20.16C12.14 20.96 10.25 21.36 8.21 21.36C5.71 21.36 3.75 20.77 2.33 19.59C0.91 18.39 0.2 16.67 0.2 14.43C0.2 13.41 0.37 12.24 0.71 10.92C1.29 8.7 2.2 6.82 3.44 5.28C4.7 3.72 6.19 2.55 7.91 1.77C9.65 0.969999 11.55 0.569998 13.61 0.569998ZM13.07 3.51C12.47 3.51 11.93 3.75 11.45 4.23C10.97 4.71 10.49 5.5 10.01 6.6C9.55 7.68 9.05 9.19 8.51 11.13C7.71 13.93 7.31 15.86 7.31 16.92C7.31 17.54 7.42 17.99 7.64 18.27C7.86 18.55 8.21 18.69 8.69 18.69C9.29 18.69 9.83 18.45 10.31 17.97C10.79 17.47 11.26 16.68 11.72 15.6C12.18 14.52 12.69 13.03 13.25 11.13C14.03 8.37 14.42 6.43 14.42 5.31C14.42 4.67 14.31 4.21 14.09 3.93C13.87 3.65 13.53 3.51 13.07 3.51Z" fill="url(#paint0_linear_221_693)"/>
<defs>
<linearGradient id="paint0_linear_221_693" x1="10.5" y1="-10" x2="10.5" y2="34" gradientUnits="userSpaceOnUse">
<stop offset="0.255208" stop-color="#9356DC"/>
<stop offset="1" stop-color="#FF79DA"/>
</linearGradient>
</defs>
</svg>